<svg data-v-423bf9ae="" xmlns="http://www.w3.org/2000/svg" viewBox="0 0 42.31872180109512 60" class="font"><!----><!----><defs data-v-423bf9ae=""><linearGradient data-v-423bf9ae="" gradientTransform="rotate(25)" id="51b7c633-8047-4fab-a1ed-09d31b4b27be" x1="0%" y1="0%" x2="100%" y2="0%"><stop data-v-423bf9ae="" offset="0%" style="stop-color: rgb(101, 102, 206); stop-opacity: 1;"></stop><stop data-v-423bf9ae="" offset="100%" style="stop-color: rgb(219, 193, 208); stop-opacity: 1;"></stop></linearGradient></defs><g data-v-423bf9ae="" id="0e8f87c8-fe86-42ac-a15e-ede81e47542b" fill="url(#51b7c633-8047-4fab-a1ed-09d31b4b27be)" transform="matrix(5.7747832548013,0,0,5.7747832548013,-3.8546681860711374,-1.3859473209692013)"><path d="M7.90 0.64L7.90 0.64C7.25 0.38 6.57 0.24 5.87 0.24C3.37 0.24 1.78 1.58 1.08 3.32C0.53 4.65 0.53 6.22 1.08 7.56C1.78 9.28 3.37 10.63 5.87 10.63C6.57 10.63 7.25 10.50 7.90 10.23C7.98 10.19 8.02 10.11 7.98 10.01C7.95 9.94 7.84 9.90 7.77 9.93C7.17 10.19 6.52 10.30 5.87 10.30C3.51 10.30 2.02 9.06 1.36 7.43C0.85 6.17 0.85 4.70 1.36 3.43C2.02 1.83 3.51 0.56 5.87 0.56C6.52 0.56 7.17 0.69 7.77 0.94C7.84 0.97 7.95 0.94 7.98 0.85C8.01 0.77 7.98 0.67 7.90 0.64ZM7.50 7.88L7.50 7.88C6.96 8.19 6.50 8.30 5.87 8.30C4.52 8.30 3.68 7.57 3.30 6.62C3.01 5.88 3.01 5.00 3.30 4.26C3.68 3.32 4.52 2.58 5.87 2.58C6.50 2.58 6.96 2.69 7.50 2.98C7.59 3.02 7.67 3.00 7.71 2.93C7.76 2.84 7.73 2.74 7.66 2.70C7.06 2.37 6.55 2.25 5.87 2.25C4.38 2.25 3.42 3.08 3.01 4.14C2.69 4.96 2.69 5.91 3.01 6.73C3.42 7.80 4.38 8.61 5.87 8.61C6.55 8.61 7.06 8.50 7.66 8.16C7.73 8.12 7.76 8.02 7.71 7.95C7.67 7.87 7.59 7.84 7.50 7.88Z"></path></g><!----><!----></svg>