<svg data-v-423bf9ae="" xmlns="http://www.w3.org/2000/svg" viewBox="0 0 426.7658644936236 60" class="font"><!----><!----><defs data-v-423bf9ae=""><linearGradient data-v-423bf9ae="" gradientTransform="rotate(25)" id="8f15412e-8860-413d-8158-acdb317e4786" x1="0%" y1="0%" x2="100%" y2="0%"><stop data-v-423bf9ae="" offset="0%" style="stop-color: rgb(54, 22, 172); stop-opacity: 1;"></stop><stop data-v-423bf9ae="" offset="100%" style="stop-color: rgb(224, 155, 237); stop-opacity: 1;"></stop></linearGradient></defs><g data-v-423bf9ae="" id="9d51b947-ac4e-44bf-9999-55024efac65a" fill="url(#8f15412e-8860-413d-8158-acdb317e4786)" transform="matrix(4.629629616002596,0,0,4.629629616002596,-2.632274442204107,-15.231481736879346)"><path d="M8.65 7.07L8.65 7.07Q8.46 6.55 8.04 6.19Q7.62 5.82 7.08 5.62Q6.54 5.42 5.94 5.37Q5.33 5.32 4.80 5.43L4.80 5.43Q4.23 5.56 3.77 5.86Q3.32 6.16 3.00 6.59Q2.69 7.01 2.52 7.53Q2.35 8.05 2.35 8.61L2.35 8.61Q2.35 9.66 2.80 10.40Q3.25 11.13 3.93 11.52Q4.62 11.91 5.43 11.94Q6.24 11.97 6.97 11.63L6.97 11.63Q7.60 11.35 8.39 10.54L8.39 10.54L9.59 11.84Q9.11 12.33 8.67 12.68Q8.22 13.03 7.74 13.26Q7.25 13.48 6.71 13.59Q6.17 13.71 5.54 13.71L5.54 13.71Q4.41 13.71 3.54 13.34Q2.67 12.98 2.06 12.37Q1.44 11.76 1.08 10.97Q0.73 10.18 0.62 9.32Q0.50 8.47 0.66 7.62Q0.81 6.78 1.22 6.05L1.22 6.05Q1.61 5.36 2.11 4.89Q2.60 4.42 3.19 4.14Q3.77 3.85 4.42 3.72Q5.07 3.60 5.77 3.58L5.77 3.58Q6.26 3.58 6.80 3.68Q7.34 3.77 7.82 3.96Q8.30 4.14 8.68 4.44Q9.06 4.73 9.21 5.12Q9.37 5.52 9.25 6.00Q9.14 6.48 8.65 7.07ZM14.36 6.10L14.36 6.10Q15.47 6.10 16.33 6.64Q17.19 7.17 17.68 7.99Q18.17 8.82 18.21 9.83Q18.24 10.84 17.70 11.80L17.70 11.80Q17.23 12.60 16.49 13.08Q15.75 13.55 14.91 13.67Q14.07 13.79 13.22 13.53Q12.38 13.27 11.70 12.60L11.70 12.60Q10.95 11.83 10.70 10.82Q10.44 9.81 10.74 8.81L10.74 8.81Q10.86 8.40 11.15 8.13Q11.44 7.87 11.80 7.74Q12.17 7.62 12.56 7.63Q12.95 7.64 13.29 7.79Q13.62 7.94 13.85 8.21Q14.08 8.48 14.13 8.88L14.13 8.88Q13.92 8.72 13.62 8.71Q13.33 8.71 13.05 8.84Q12.78 8.97 12.59 9.25Q12.40 9.52 12.40 9.93L12.40 9.93Q12.40 10.63 12.70 11.09Q12.99 11.55 13.43 11.78Q13.87 12.01 14.39 12.01Q14.90 12.01 15.34 11.77Q15.78 11.54 16.07 11.07Q16.37 10.60 16.37 9.90L16.37 9.90Q16.37 9.35 16.17 8.93Q15.97 8.51 15.64 8.24Q15.32 7.97 14.88 7.86Q14.45 7.76 13.96 7.85L13.96 7.85Q13.75 7.60 13.45 7.46Q13.15 7.31 12.80 7.26Q12.45 7.21 12.10 7.27Q11.75 7.34 11.44 7.52L11.44 7.52Q12.00 6.85 12.74 6.48Q13.48 6.10 14.36 6.10ZM21.15 6.29L21.15 7.11Q21.27 6.86 21.49 6.68Q21.71 6.50 21.99 6.38Q22.27 6.26 22.57 6.19Q22.86 6.12 23.11 6.10L23.11 6.10Q23.65 6.06 24.17 6.24Q24.70 6.41 25.12 6.85L25.12 6.85Q25.24 6.99 25.35 7.13Q25.45 7.28 25.52 7.46L25.52 7.46Q25.56 7.15 25.77 6.91Q25.98 6.66 26.29 6.49Q26.59 6.31 26.94 6.22Q27.29 6.12 27.62 6.10L27.62 6.10Q28.17 6.06 28.69 6.24Q29.22 6.41 29.67 6.85L29.67 6.85Q30.30 7.50 30.30 8.74L30.30 8.74L30.30 13.52L28.48 13.52Q28.48 13.29 28.48 12.88Q28.48 12.47 28.47 11.99Q28.46 11.51 28.46 10.99Q28.46 10.47 28.45 10.01Q28.43 9.55 28.41 9.18Q28.39 8.82 28.36 8.65L28.36 8.65Q28.21 7.74 27.34 7.70L27.34 7.70Q26.85 7.69 26.52 7.98Q26.19 8.27 26.21 8.69L26.21 8.69Q26.08 8.65 25.96 8.55Q25.83 8.44 25.73 8.30L25.73 8.30Q25.75 8.41 25.75 8.52Q25.75 8.62 25.75 8.74L25.75 8.74L25.75 13.52L23.95 13.52Q23.95 13.29 23.96 12.88Q23.97 12.47 23.97 11.99Q23.97 11.51 23.97 10.99Q23.97 10.47 23.95 10.01Q23.94 9.55 23.91 9.18Q23.88 8.82 23.84 8.65L23.84 8.65Q23.73 8.20 23.42 7.98Q23.11 7.76 22.75 7.76L22.75 7.76Q22.26 7.76 21.99 8.02Q21.73 8.27 21.73 8.69L21.73 8.69Q21.56 8.64 21.39 8.46Q21.22 8.29 21.15 8.09L21.15 8.09L21.15 13.52L19.33 13.52L19.33 6.29L21.15 6.29ZM33.50 6.29L33.50 7.07Q34.02 6.55 34.64 6.31Q35.27 6.08 35.90 6.10Q36.53 6.13 37.11 6.40Q37.70 6.66 38.15 7.15Q38.60 7.64 38.87 8.34Q39.14 9.03 39.14 9.90L39.14 9.90Q39.14 10.74 38.85 11.44Q38.56 12.14 38.07 12.64Q37.58 13.15 36.94 13.42Q36.30 13.69 35.63 13.66L35.63 13.66Q34.93 13.64 34.52 13.36Q34.12 13.09 33.94 12.73Q33.75 12.38 33.75 12.01Q33.75 11.63 33.88 11.41L33.88 11.41Q34.01 11.58 34.18 11.70Q34.36 11.82 34.56 11.88Q34.76 11.94 34.98 11.97Q35.20 12.00 35.39 12.00L35.39 12.00Q36.04 12.00 36.47 11.68Q36.90 11.37 37.12 10.90Q37.34 10.43 37.34 9.88Q37.34 9.32 37.13 8.86Q36.92 8.39 36.48 8.07Q36.05 7.76 35.39 7.76L35.39 7.76Q34.85 7.76 34.48 8.01Q34.12 8.26 33.90 8.66Q33.68 9.06 33.59 9.55Q33.50 10.04 33.50 10.53L33.50 10.53L33.50 16.25L31.70 16.25L31.70 7.74Q31.70 7.38 31.84 7.10Q31.99 6.82 32.24 6.63Q32.49 6.44 32.82 6.36Q33.14 6.27 33.50 6.29L33.50 6.29ZM45.67 13.52L45.67 12.73Q45.14 13.24 44.51 13.48Q43.89 13.72 43.26 13.70Q42.63 13.68 42.03 13.41Q41.44 13.15 40.98 12.65Q40.53 12.15 40.26 11.46Q39.98 10.77 39.98 9.88L39.98 9.88Q39.98 9.04 40.28 8.33Q40.57 7.62 41.07 7.11Q41.57 6.61 42.20 6.34Q42.84 6.06 43.53 6.09L43.53 6.09Q44.20 6.12 44.60 6.39Q45.01 6.66 45.20 7.03Q45.39 7.39 45.40 7.76Q45.40 8.13 45.28 8.36L45.28 8.36Q45.04 8.01 44.60 7.89Q44.17 7.77 43.76 7.77L43.76 7.77Q43.12 7.77 42.69 8.09Q42.25 8.40 42.03 8.88Q41.80 9.35 41.80 9.91Q41.79 10.46 42.01 10.93Q42.22 11.41 42.66 11.73Q43.11 12.04 43.76 12.04L43.76 12.04Q44.32 12.04 44.69 11.79Q45.05 11.54 45.27 11.14Q45.49 10.74 45.58 10.24Q45.67 9.74 45.67 9.25L45.67 9.25L45.67 7.04L45.67 6.27L47.49 6.27L47.49 13.52L45.67 13.52ZM50.69 6.27L50.69 7.11Q50.81 6.86 51.04 6.68Q51.27 6.50 51.55 6.37Q51.83 6.24 52.12 6.17Q52.42 6.10 52.67 6.09L52.67 6.09Q53.20 6.06 53.72 6.24Q54.24 6.41 54.67 6.85L54.67 6.85Q55.30 7.50 55.30 8.74L55.30 8.74L55.30 13.52L53.51 13.52Q53.51 13.29 53.52 12.88Q53.52 12.47 53.52 11.99Q53.52 11.51 53.52 10.99Q53.52 10.47 53.51 10.01Q53.49 9.55 53.47 9.18Q53.44 8.82 53.40 8.65L53.40 8.65Q53.28 8.20 52.97 7.98Q52.65 7.76 52.29 7.76L52.29 7.76Q51.81 7.76 51.55 8.02Q51.28 8.27 51.28 8.69L51.28 8.69Q51.11 8.64 50.95 8.46Q50.78 8.29 50.69 8.09L50.69 8.09L50.69 8.47L50.69 13.52L48.89 13.52L48.89 6.27L50.69 6.27ZM56.98 13.52L56.98 7.74Q57.01 7.32 57.16 7.04Q57.30 6.76 57.54 6.59Q57.78 6.43 58.09 6.35Q58.41 6.27 58.79 6.27L58.79 6.27L58.79 13.52L56.98 13.52ZM57.89 3.29L57.89 3.29Q58.37 3.29 58.70 3.64L58.70 3.64Q59.05 3.98 59.05 4.47L59.05 4.47Q59.05 4.96 58.72 5.31L58.72 5.31Q58.52 5.50 58.26 5.58Q58.00 5.66 57.74 5.73Q57.48 5.81 57.27 5.92Q57.05 6.02 56.97 6.26L56.97 6.26Q56.90 6.03 56.82 5.68Q56.74 5.33 56.72 4.96Q56.70 4.58 56.76 4.22Q56.83 3.86 57.06 3.63L57.06 3.63Q57.40 3.29 57.89 3.29ZM63.97 6.10L63.97 6.10Q65.07 6.10 65.93 6.64Q66.79 7.17 67.28 7.99Q67.77 8.82 67.81 9.83Q67.84 10.84 67.30 11.80L67.30 11.80Q66.84 12.60 66.09 13.08Q65.35 13.55 64.51 13.67Q63.67 13.79 62.83 13.53Q61.98 13.27 61.31 12.60L61.31 12.60Q60.55 11.83 60.30 10.82Q60.05 9.81 60.34 8.81L60.34 8.81Q60.47 8.40 60.75 8.13Q61.04 7.87 61.40 7.74Q61.77 7.62 62.16 7.63Q62.55 7.64 62.89 7.79Q63.22 7.94 63.46 8.21Q63.69 8.48 63.73 8.88L63.73 8.88Q63.52 8.72 63.22 8.71Q62.93 8.71 62.66 8.84Q62.38 8.97 62.20 9.25Q62.01 9.52 62.01 9.93L62.01 9.93Q62.01 10.63 62.30 11.09Q62.59 11.55 63.04 11.78Q63.48 12.01 63.99 12.01Q64.50 12.01 64.94 11.77Q65.38 11.54 65.67 11.07Q65.97 10.60 65.97 9.90L65.97 9.90Q65.97 9.35 65.77 8.93Q65.58 8.51 65.25 8.24Q64.92 7.97 64.48 7.86Q64.05 7.76 63.56 7.85L63.56 7.85Q63.35 7.60 63.05 7.46Q62.75 7.31 62.40 7.26Q62.05 7.21 61.70 7.27Q61.35 7.34 61.04 7.52L61.04 7.52Q61.60 6.85 62.34 6.48Q63.08 6.10 63.97 6.10ZM70.74 6.27L70.74 7.11Q70.85 6.86 71.09 6.68Q71.32 6.50 71.60 6.37Q71.88 6.24 72.17 6.17Q72.46 6.10 72.72 6.09L72.72 6.09Q73.25 6.06 73.77 6.24Q74.28 6.41 74.72 6.85L74.72 6.85Q75.35 7.50 75.35 8.74L75.35 8.74L75.35 13.52L73.56 13.52Q73.56 13.29 73.56 12.88Q73.57 12.47 73.57 11.99Q73.57 11.51 73.57 10.99Q73.57 10.47 73.56 10.01Q73.54 9.55 73.51 9.18Q73.49 8.82 73.44 8.65L73.44 8.65Q73.33 8.20 73.02 7.98Q72.70 7.76 72.34 7.76L72.34 7.76Q71.86 7.76 71.60 8.02Q71.33 8.27 71.33 8.69L71.33 8.69Q71.16 8.64 70.99 8.46Q70.83 8.29 70.74 8.09L70.74 8.09L70.74 8.47L70.74 13.52L68.94 13.52L68.94 6.27L70.74 6.27ZM80.11 13.52L83.40 5.03Q83.68 4.28 84.23 3.95Q84.78 3.61 85.75 3.78L85.75 3.78L89.50 13.52L87.57 13.52L86.81 11.52Q86.39 11.52 85.90 11.52Q85.41 11.51 85.02 11.58Q84.62 11.65 84.39 11.82Q84.17 12.00 84.28 12.38L84.28 12.38Q83.78 12.24 83.52 11.95Q83.26 11.66 83.20 11.34Q83.15 11.02 83.27 10.70Q83.40 10.39 83.65 10.18L83.65 10.18Q83.89 9.97 84.19 9.88Q84.49 9.79 84.82 9.75Q85.15 9.72 85.48 9.72Q85.82 9.73 86.13 9.73L86.13 9.73L84.81 6.37Q84.36 7.50 84.02 8.39Q83.68 9.28 83.36 10.09Q83.05 10.89 82.73 11.71Q82.42 12.53 82.04 13.52L82.04 13.52L80.11 13.52ZM92.75 3.72L92.75 13.52L90.90 13.52L90.90 5.19Q90.90 4.49 91.41 4.10Q91.91 3.71 92.75 3.72L92.75 3.72Z"></path></g><!----><!----></svg>